<mxfile host="app.diagrams.net" modified="2023-12-19T21:46:59.199Z" agent="Mozilla/5.0 (Windows NT 10.0; Win64; x64) AppleWebKit/537.36 (KHTML, like Gecko) Chrome/120.0.0.0 Safari/537.36 Edg/120.0.0.0" etag="dcfmHXT9czXuPKESEGa0" version="22.1.11" type="github">
  <diagram name="第 1 页" id="69Trldqz50zGUkP1dT_B">
    <mxGraphModel dx="1050" dy="611" grid="1" gridSize="10" guides="1" tooltips="1" connect="1" arrows="1" fold="1" page="1" pageScale="1" pageWidth="1169" pageHeight="827" math="0" shadow="0">
      <root>
        <mxCell id="0" />
        <mxCell id="1" parent="0" />
        <mxCell id="dcP0o4OyxMGxx7FM1IKd-20" value="" style="align=center;verticalAlign=top;childLayout=stackLayout;horizontal=1;horizontalStack=0;resizeParent=1;resizeParentMax=0;resizeLast=0;marginBottom=0;container=1;" vertex="1" parent="1">
          <mxGeometry x="70" y="170" width="430" height="460" as="geometry" />
        </mxCell>
        <mxCell id="dcP0o4OyxMGxx7FM1IKd-36" value="&lt;font style=&quot;font-size: 14px;&quot; face=&quot;Times New Roman&quot;&gt;&lt;span style=&quot;color: rgb(0, 0, 0); font-style: normal; font-variant-ligatures: normal; font-variant-caps: normal; font-weight: 400; letter-spacing: normal; orphans: 2; text-indent: 0px; text-transform: none; widows: 2; word-spacing: 0px; -webkit-text-stroke-width: 0px; background-color: rgb(251, 251, 251); text-decoration-thickness: initial; text-decoration-style: initial; text-decoration-color: initial; float: none; display: inline !important;&quot;&gt;《Component》&lt;/span&gt;&lt;br style=&quot;border-color: var(--border-color); color: rgb(0, 0, 0); font-style: normal; font-variant-ligatures: normal; font-variant-caps: normal; font-weight: 400; letter-spacing: normal; orphans: 2; text-indent: 0px; text-transform: none; widows: 2; word-spacing: 0px; -webkit-text-stroke-width: 0px; background-color: rgb(251, 251, 251); text-decoration-thickness: initial; text-decoration-style: initial; text-decoration-color: initial;&quot;&gt;&lt;span style=&quot;color: rgb(0, 0, 0); font-style: normal; font-variant-ligatures: normal; font-variant-caps: normal; font-weight: 400; letter-spacing: normal; orphans: 2; text-indent: 0px; text-transform: none; widows: 2; word-spacing: 0px; -webkit-text-stroke-width: 0px; background-color: rgb(251, 251, 251); text-decoration-thickness: initial; text-decoration-style: initial; text-decoration-color: initial; float: none; display: inline !important;&quot;&gt;《Subsystem》&lt;/span&gt;&lt;br style=&quot;border-color: var(--border-color); color: rgb(0, 0, 0); font-style: normal; font-variant-ligatures: normal; font-variant-caps: normal; font-weight: 400; letter-spacing: normal; orphans: 2; text-indent: 0px; text-transform: none; widows: 2; word-spacing: 0px; -webkit-text-stroke-width: 0px; background-color: rgb(251, 251, 251); text-decoration-thickness: initial; text-decoration-style: initial; text-decoration-color: initial;&quot;&gt;&lt;span style=&quot;&quot;&gt;Doctor APP&lt;/span&gt;&lt;/font&gt;" style="text;whiteSpace=wrap;html=1;fontSize=20;fontFamily=Architects Daughter;align=center;" vertex="1" parent="dcP0o4OyxMGxx7FM1IKd-20">
          <mxGeometry width="430" height="460" as="geometry" />
        </mxCell>
        <mxCell id="dcP0o4OyxMGxx7FM1IKd-23" value="" style="fontStyle=1;align=center;verticalAlign=top;childLayout=stackLayout;horizontal=1;horizontalStack=0;resizeParent=1;resizeParentMax=0;resizeLast=0;marginBottom=0;movable=1;resizable=1;rotatable=1;deletable=1;editable=1;locked=0;connectable=1;" vertex="1" parent="1">
          <mxGeometry x="690" y="170" width="370" height="460" as="geometry" />
        </mxCell>
        <mxCell id="dcP0o4OyxMGxx7FM1IKd-24" value="" style="html=1;align=center;spacingLeft=4;verticalAlign=top;strokeColor=none;fillColor=none;whiteSpace=wrap;" vertex="1" parent="dcP0o4OyxMGxx7FM1IKd-23">
          <mxGeometry width="370" height="460" as="geometry" />
        </mxCell>
        <mxCell id="dcP0o4OyxMGxx7FM1IKd-25" value="" style="shape=module;jettyWidth=10;jettyHeight=4;" vertex="1" parent="dcP0o4OyxMGxx7FM1IKd-24">
          <mxGeometry x="1" width="16" height="20" relative="1" as="geometry">
            <mxPoint x="-25" y="9" as="offset" />
          </mxGeometry>
        </mxCell>
        <mxCell id="dcP0o4OyxMGxx7FM1IKd-71" value="&lt;span style=&quot;color: rgb(0, 0, 0); font-family: &amp;quot;Times New Roman&amp;quot;; font-size: 14px; font-style: normal; font-variant-ligatures: normal; font-variant-caps: normal; font-weight: 400; letter-spacing: normal; orphans: 2; text-indent: 0px; text-transform: none; widows: 2; word-spacing: 0px; -webkit-text-stroke-width: 0px; background-color: rgb(251, 251, 251); text-decoration-thickness: initial; text-decoration-style: initial; text-decoration-color: initial; float: none; display: inline !important;&quot;&gt;《Component》&lt;/span&gt;&lt;br style=&quot;border-color: var(--border-color); color: rgb(0, 0, 0); font-family: &amp;quot;Times New Roman&amp;quot;; font-size: 14px; font-style: normal; font-variant-ligatures: normal; font-variant-caps: normal; font-weight: 400; letter-spacing: normal; orphans: 2; text-indent: 0px; text-transform: none; widows: 2; word-spacing: 0px; -webkit-text-stroke-width: 0px; background-color: rgb(251, 251, 251); text-decoration-thickness: initial; text-decoration-style: initial; text-decoration-color: initial;&quot;&gt;&lt;span style=&quot;color: rgb(0, 0, 0); font-family: &amp;quot;Times New Roman&amp;quot;; font-size: 14px; font-style: normal; font-variant-ligatures: normal; font-variant-caps: normal; font-weight: 400; letter-spacing: normal; orphans: 2; text-indent: 0px; text-transform: none; widows: 2; word-spacing: 0px; -webkit-text-stroke-width: 0px; background-color: rgb(251, 251, 251); text-decoration-thickness: initial; text-decoration-style: initial; text-decoration-color: initial; float: none; display: inline !important;&quot;&gt;《Subsystem》&lt;/span&gt;&lt;br style=&quot;border-color: var(--border-color); color: rgb(0, 0, 0); font-family: &amp;quot;Times New Roman&amp;quot;; font-size: 14px; font-style: normal; font-variant-ligatures: normal; font-variant-caps: normal; font-weight: 400; letter-spacing: normal; orphans: 2; text-indent: 0px; text-transform: none; widows: 2; word-spacing: 0px; -webkit-text-stroke-width: 0px; background-color: rgb(251, 251, 251); text-decoration-thickness: initial; text-decoration-style: initial; text-decoration-color: initial;&quot;&gt;&lt;span style=&quot;color: rgb(0, 0, 0); font-family: &amp;quot;Times New Roman&amp;quot;; font-size: 14px; font-style: normal; font-variant-ligatures: normal; font-variant-caps: normal; font-weight: 400; letter-spacing: normal; orphans: 2; text-indent: 0px; text-transform: none; widows: 2; word-spacing: 0px; -webkit-text-stroke-width: 0px; background-color: rgb(251, 251, 251); text-decoration-thickness: initial; text-decoration-style: initial; text-decoration-color: initial; float: none; display: inline !important;&quot;&gt;Hospital Management System Saas&lt;/span&gt;" style="text;whiteSpace=wrap;html=1;fontSize=20;fontFamily=Architects Daughter;align=center;" vertex="1" parent="dcP0o4OyxMGxx7FM1IKd-24">
          <mxGeometry x="70" y="-0.9999999999999716" width="230" height="100" as="geometry" />
        </mxCell>
        <mxCell id="dcP0o4OyxMGxx7FM1IKd-22" value="" style="shape=module;jettyWidth=10;jettyHeight=4;" vertex="1" parent="1">
          <mxGeometry x="455" y="179" width="16" height="20" as="geometry">
            <mxPoint x="-25" y="9" as="offset" />
          </mxGeometry>
        </mxCell>
        <mxCell id="dcP0o4OyxMGxx7FM1IKd-60" value="" style="fontStyle=1;align=center;verticalAlign=top;childLayout=stackLayout;horizontal=1;horizontalStack=0;resizeParent=1;resizeParentMax=0;resizeLast=0;marginBottom=0;" vertex="1" parent="1">
          <mxGeometry x="250" y="700" width="170" height="88.29780872302617" as="geometry" />
        </mxCell>
        <mxCell id="dcP0o4OyxMGxx7FM1IKd-61" value="&lt;font style=&quot;font-size: 14px;&quot; face=&quot;Times New Roman&quot;&gt;《Component》&lt;br&gt;《》&lt;/font&gt;" style="html=1;align=center;spacingLeft=4;verticalAlign=top;strokeColor=none;fillColor=none;whiteSpace=wrap;" vertex="1" parent="dcP0o4OyxMGxx7FM1IKd-60">
          <mxGeometry width="170" height="88.29780872302617" as="geometry" />
        </mxCell>
        <mxCell id="dcP0o4OyxMGxx7FM1IKd-62" value="" style="shape=module;jettyWidth=10;jettyHeight=4;" vertex="1" parent="dcP0o4OyxMGxx7FM1IKd-61">
          <mxGeometry x="1" width="16" height="20" relative="1" as="geometry">
            <mxPoint x="-25" y="9" as="offset" />
          </mxGeometry>
        </mxCell>
        <mxCell id="dcP0o4OyxMGxx7FM1IKd-63" value="" style="fontStyle=1;align=center;verticalAlign=top;childLayout=stackLayout;horizontal=1;horizontalStack=0;resizeParent=1;resizeParentMax=0;resizeLast=0;marginBottom=0;" vertex="1" parent="1">
          <mxGeometry x="440" y="760" width="170" height="88.29780872302617" as="geometry" />
        </mxCell>
        <mxCell id="dcP0o4OyxMGxx7FM1IKd-64" value="&lt;font style=&quot;font-size: 14px;&quot; face=&quot;Times New Roman&quot;&gt;《Component》&lt;br&gt;《》&lt;/font&gt;" style="html=1;align=center;spacingLeft=4;verticalAlign=top;strokeColor=none;fillColor=none;whiteSpace=wrap;" vertex="1" parent="dcP0o4OyxMGxx7FM1IKd-63">
          <mxGeometry width="170" height="88.29780872302617" as="geometry" />
        </mxCell>
        <mxCell id="dcP0o4OyxMGxx7FM1IKd-65" value="" style="shape=module;jettyWidth=10;jettyHeight=4;" vertex="1" parent="dcP0o4OyxMGxx7FM1IKd-64">
          <mxGeometry x="1" width="16" height="20" relative="1" as="geometry">
            <mxPoint x="-25" y="9" as="offset" />
          </mxGeometry>
        </mxCell>
        <mxCell id="dcP0o4OyxMGxx7FM1IKd-26" value="" style="fontStyle=1;align=center;verticalAlign=top;childLayout=stackLayout;horizontal=1;horizontalStack=0;resizeParent=1;resizeParentMax=0;resizeLast=0;marginBottom=0;" vertex="1" parent="1">
          <mxGeometry x="590" y="660" width="170" height="88.29780872302617" as="geometry" />
        </mxCell>
        <mxCell id="dcP0o4OyxMGxx7FM1IKd-27" value="&lt;font style=&quot;font-size: 14px;&quot; face=&quot;Times New Roman&quot;&gt;《Component》&lt;br&gt;《》&lt;/font&gt;" style="html=1;align=center;spacingLeft=4;verticalAlign=top;strokeColor=none;fillColor=none;whiteSpace=wrap;" vertex="1" parent="dcP0o4OyxMGxx7FM1IKd-26">
          <mxGeometry width="170" height="88.29780872302617" as="geometry" />
        </mxCell>
        <mxCell id="dcP0o4OyxMGxx7FM1IKd-28" value="" style="shape=module;jettyWidth=10;jettyHeight=4;" vertex="1" parent="dcP0o4OyxMGxx7FM1IKd-27">
          <mxGeometry x="1" width="16" height="20" relative="1" as="geometry">
            <mxPoint x="-25" y="9" as="offset" />
          </mxGeometry>
        </mxCell>
        <mxCell id="dcP0o4OyxMGxx7FM1IKd-57" value="" style="fontStyle=1;align=center;verticalAlign=top;childLayout=stackLayout;horizontal=1;horizontalStack=0;resizeParent=1;resizeParentMax=0;resizeLast=0;marginBottom=0;" vertex="1" parent="1">
          <mxGeometry x="840" y="720" width="170" height="88.29780872302617" as="geometry" />
        </mxCell>
        <mxCell id="dcP0o4OyxMGxx7FM1IKd-58" value="&lt;font style=&quot;font-size: 14px;&quot; face=&quot;Times New Roman&quot;&gt;《Component》&lt;br&gt;《》&lt;/font&gt;" style="html=1;align=center;spacingLeft=4;verticalAlign=top;strokeColor=none;fillColor=none;whiteSpace=wrap;" vertex="1" parent="dcP0o4OyxMGxx7FM1IKd-57">
          <mxGeometry width="170" height="88.29780872302617" as="geometry" />
        </mxCell>
        <mxCell id="dcP0o4OyxMGxx7FM1IKd-59" value="" style="shape=module;jettyWidth=10;jettyHeight=4;" vertex="1" parent="dcP0o4OyxMGxx7FM1IKd-58">
          <mxGeometry x="1" width="16" height="20" relative="1" as="geometry">
            <mxPoint x="-25" y="9" as="offset" />
          </mxGeometry>
        </mxCell>
      </root>
    </mxGraphModel>
  </diagram>
</mxfile>
